<?xml version="1.0" encoding="UTF-8"?>
<svg id="Calque_1" data-name="Calque 1" xmlns="http://www.w3.org/2000/svg" viewBox="0 0 580.2 305.33">
  <g>
    <path d="M0,234.91h21.1c12.8,0,29.4,0,29.4,17.2,0,7.6-4.3,13.2-10.9,15,8.4,2.1,14.6,9.1,14.6,18.5,0,19.3-16.9,19.3-30.4,19.3H0v-70Z"/>
    <path d="M63.1,234.91h53.5v24.6h-28.9v7.9h23.5v4.6h-23.5v8.3h28.9v24.6h-53.5v-70Z"/>
    <path d="M127.5,234.91h23.6c12.7,0,32.1,0,32.1,20.9,0,10.8-5.2,17.8-16.7,20.8l17.9,28.3h-56.9v-70Z"/>
    <path d="M192.4,234.91h25v45.4h25.2v24.6h-50.2v-70Z"/>
    <path d="M251.3,234.91h25v70h-25v-70Z"/>
    <path d="M288.3,233.11l36.1,35.6v-33.8h25v70h-61.1v-71.8Z"/>
    <path d="M358.59,280.32c13.2,0,17.8-3.4,25.2-22,6.4-16.1,15.1-23.4,31.6-23.4h3.4v24.5h-.1c-7.8,0-10.6,7.1-14.7,18.4-6.8,18.7-19.3,27.1-38.9,27.1h-6.5v-24.6Z"/>
    <path d="M464.99,234.91h11.8c8.3,0,41.4,0,41.4,34.8s-30.7,35.2-37.3,35.2h-15.9v-70Z"/>
    <path d="M526.69,234.91h53.5v24.6h-28.9v7.9h23.5v4.6h-23.5v8.3h28.9v24.6h-53.5v-70Z"/>
  </g>
  <g>
    <path d="M437.8,0l5.14,100.42,3.42,3.6v5.17l-1.47,1.17v3.87s26.5,15.46.45,35.61l-.11,3.71h1.63l-.08,7.57h-1.24l5.56,144.2h-13.29V0Z"/>
    <path d="M437.8,0l-5.14,100.42-3.42,3.6v5.17s1.47,1.17,1.47,1.17v3.87s-26.5,15.46-.45,35.61l.11,3.71h-1.63s.08,7.57.08,7.57h1.24s-5.56,144.2-5.56,144.2h22.79S437.8,0,437.8,0Z"/>
  </g>
</svg>